<svg width="1178" height="242" viewBox="0 0 1178 242" fill="none" xmlns="http://www.w3.org/2000/svg">
<g clip-path="url(#clip0_475_237)">
<path d="M44.9771 165.658C48.854 165.281 51.7819 163.865 53.761 161.411C55.7401 158.956 57.1342 156.219 57.9436 153.198L79.0373 74.4755C81.2124 66.3579 77.6748 62.2991 68.4244 62.2991C64.4599 62.2991 60.8527 63.4318 57.6027 65.6972C54.5921 67.7738 52.581 70.6999 51.5693 74.4756L30.4756 153.198C29.7169 156.03 29.9273 158.768 31.1071 161.41C32.2867 164.053 34.481 165.375 37.6902 165.375L32.2271 185.764C26.5636 185.764 21.5053 184.914 17.0523 183.215C12.7879 181.516 9.24173 179.251 6.41358 176.419C3.7743 173.587 1.89678 170.378 0.781227 166.791C-0.283684 163.015 -0.259678 159.051 0.853189 154.898L22.9333 72.4937C24.1979 67.7741 26.4687 63.5264 29.7458 59.7508C33.0229 55.9752 36.9034 52.7658 41.3873 50.1228C45.8711 47.4799 50.8639 45.4032 56.3658 43.893C62.0564 42.3827 67.9223 41.6276 73.9633 41.6275C80.0044 41.6276 85.3711 42.3827 90.0636 43.893C94.9448 45.4035 98.9193 47.4801 101.987 50.1228C105.243 52.7658 107.378 56.0696 108.393 60.034C109.646 63.8097 109.666 67.9629 108.452 72.4938L86.3722 154.898C85.3099 158.862 83.329 162.732 80.4295 166.508C77.5806 170.095 74.0776 173.304 69.9207 176.136C65.7639 178.968 61.0727 181.327 55.8473 183.215C50.6724 184.914 45.2533 185.764 39.5898 185.764L44.9771 165.658Z" fill="white"/>
<path d="M126.529 33.6985C127.541 29.9228 127.947 26.9965 127.748 24.9199C127.738 22.8433 126.412 21.805 123.769 21.8048C121.315 21.8049 119.432 22.8432 118.12 24.9198C116.998 26.9964 115.93 29.9226 114.919 33.6983L113.857 37.6628L84.9726 37.6627L86.566 31.716C89.1458 22.088 94.3786 14.5367 102.264 9.06192C110.15 3.58722 119.19 0.84987 129.384 0.849833C139.578 0.849842 147.151 3.58722 152.103 9.06198C157.244 14.5367 158.524 22.088 155.944 31.716L115.046 184.348L86.1626 184.348L126.529 33.6985Z" fill="white"/>
<path d="M289.001 41.6274C302.593 41.6273 312.501 44.4591 318.723 50.1228C325.135 55.7862 327.101 63.2431 324.622 72.4935L302.542 154.898C301.328 159.428 299.058 163.676 295.73 167.641C292.642 171.416 288.95 174.626 284.655 177.269C280.36 179.912 275.65 181.988 270.526 183.498C265.59 185.009 260.574 185.764 255.477 185.764C250.568 185.764 245.957 185.009 241.642 183.498C237.516 181.988 234.013 179.911 231.135 177.268C228.307 174.436 226.291 171.038 225.088 167.074C224.074 163.109 224.224 158.673 225.539 153.765L246.785 74.4756C247.796 70.6999 247.636 67.7737 246.305 65.697C245.024 63.4316 243.157 62.2989 240.703 62.2988C238.437 62.2989 236.082 63.3371 233.638 65.4137C231.244 67.3015 229.378 70.0389 228.039 73.6258L198.372 184.347L169.205 184.347L198.873 73.6258C199.456 70.039 198.962 67.3016 197.391 65.4137C196.06 63.3371 194.356 62.2988 192.28 62.2989C189.825 62.2989 187.256 63.4316 184.573 65.697C182.129 67.7736 180.401 70.6997 179.389 74.4754L158.295 153.198C156.12 161.316 159.186 165.375 167.492 165.375L162.029 185.763C147.87 185.763 138.126 183.026 132.797 177.552C127.656 172.077 126.376 164.526 128.956 154.898L151.036 72.4936C152.301 67.774 154.477 63.5263 157.565 59.7507C160.842 55.975 164.628 52.7657 168.924 50.1227C173.219 47.4797 177.834 45.4031 182.769 43.8928C187.894 42.3825 192.91 41.6274 197.818 41.6274C202.16 41.6274 206.325 42.2882 210.313 43.6097C214.49 44.9314 217.47 47.1967 219.253 50.4058C222.945 47.1965 227.327 44.9311 232.401 43.6097C237.475 42.2882 242.088 41.6275 246.241 41.6275C250.961 41.6275 255.478 42.3826 259.793 43.8929C264.108 45.4031 267.705 47.4798 270.584 50.1228C273.651 52.7657 275.692 56.0694 276.706 60.0339C277.96 63.8096 277.886 67.9628 276.483 72.4936L255.237 151.783C254.226 155.558 254.026 158.768 254.64 161.411C255.253 164.054 257.353 165.376 260.94 165.376C264.149 165.376 266.837 164.149 269.005 161.695C271.413 159.052 273.122 155.843 274.134 152.067L294.924 74.4772C295.936 70.7015 295.304 67.7753 293.028 65.6987C290.804 63.4332 287.615 62.3007 283.461 62.3009L289.001 41.6274Z" fill="white"/>
<path d="M435.52 1.15503C432.567 0.384897 429.178 0.000173553 425.355 0.000364668L422.523 0.000678123C412.895 0.000665066 404.38 2.54842 396.973 7.64562C389.805 12.554 384.679 20.7662 381.593 32.282L410.758 32.2819C412.174 26.9959 413.438 23.6922 414.547 22.3706C415.895 20.8603 417.327 20.1056 418.837 20.1055C420.158 20.1058 420.993 20.86 421.343 22.3701C421.933 23.6916 421.647 26.5257 420.483 30.8677C418.561 38.0415 416.373 41.6282 413.919 41.6282L385.036 41.6272C378.995 41.6272 373.128 42.3821 367.437 43.8923C361.746 45.4026 356.538 47.5737 351.815 50.4055C347.331 53.0484 343.453 56.2575 340.175 60.0331C336.898 63.8088 334.627 68.0553 333.362 72.7749L311.433 154.614C310.32 158.768 310.014 162.731 310.513 166.507C311.2 170.283 312.676 173.586 314.937 176.418C317.388 179.25 320.651 181.516 324.726 183.216C328.802 184.915 333.671 185.763 339.334 185.765L345.025 164.527C341.816 164.527 340.162 163.298 340.064 160.844C340.156 158.39 340.556 155.841 341.264 153.198L362.282 74.7578C363.294 70.9821 365.33 67.961 368.391 65.6956C371.641 63.4302 375.343 62.3003 379.497 62.3002L383.459 62.2997C380.977 63.8099 378.441 65.8869 375.845 68.5298C373.438 71.1728 371.803 74.0985 370.943 77.3078L350.228 154.615C349.115 158.768 348.93 162.639 349.668 166.226C350.645 169.624 352.264 172.736 354.526 175.568C356.838 178.211 359.749 180.382 363.258 182.081C366.767 183.779 370.711 184.915 375.09 185.481L381.602 185.481C386.096 184.915 390.553 183.78 394.973 182.081C399.581 180.382 403.75 178.212 407.479 175.569C411.208 172.926 414.377 169.906 416.987 166.508C419.836 162.921 421.842 158.956 423.006 154.613L444.858 73.0607C446.122 68.3412 445.945 63.7151 444.327 59.1844C442.898 54.6535 439.586 51.1601 434.391 48.706C436.532 47.762 438.493 46.4421 440.27 44.743C442.047 43.0439 443.539 41.3427 444.749 39.6436C446.01 37.7558 446.989 35.8685 447.683 33.9807C448.567 32.0928 449.184 30.4894 449.538 29.1679C451.814 20.6727 450.855 13.6869 446.658 8.21217C444.154 4.79043 440.441 2.43812 435.52 1.15503ZM413.142 72.9512C413.298 73.0014 413.446 73.1179 413.607 73.2738C414.15 73.8171 413.554 75.8108 408.355 90.9439C405.131 100.325 402.496 108.189 402.501 108.42C402.507 108.673 404.845 108.73 408.434 108.564C414.524 108.281 416.148 108.6 415.652 109.989C415.439 110.584 387.281 150.008 385.032 152.86C383.751 154.483 383.43 154.603 382.703 153.723C382.289 153.221 383.127 150.24 387.32 137.32C390.139 128.635 392.531 121 392.637 120.351L392.829 119.174L385.482 119.395C379.321 119.581 378.117 119.518 378.021 118.983C377.912 118.335 379.051 116.766 396.368 93.891C401.716 86.827 407.373 79.3398 408.942 77.2521C411.627 73.6776 412.464 72.7254 413.142 72.9512Z" fill="white"/>
<path d="M549.049 156.88C549.757 154.237 549.747 152.16 549.019 150.65C548.342 148.951 546.587 148.101 543.755 148.101C540.735 148.101 538.5 149.045 537.05 150.933C535.789 152.821 534.88 154.803 534.324 156.88C532.755 162.732 534.331 165.658 539.051 165.658C544.148 165.658 547.481 162.732 549.049 156.88ZM589.895 117.518C588.934 121.105 586.84 124.692 583.614 128.279C580.438 131.677 576.376 134.509 571.427 136.774C575.364 138.285 577.846 140.644 578.874 143.854C580.091 147.063 580.345 149.989 579.637 152.632L577.589 160.278C576.577 164.053 574.628 167.452 571.742 170.472C569.045 173.493 565.694 176.136 561.689 178.401C557.734 180.478 553.314 182.177 548.429 183.498C543.595 184.631 538.724 185.197 533.815 185.197C530.04 185.197 526.176 184.82 522.226 184.064C518.275 183.309 514.733 182.082 511.602 180.383C508.709 178.495 506.561 175.947 505.155 172.738C503.75 169.528 503.704 165.469 505.02 160.561L493.697 172.171C491.101 174.814 488.159 176.985 484.872 178.684C481.825 180.195 478.664 181.422 475.39 182.366C472.356 183.121 469.184 183.687 465.874 184.065C462.802 184.253 459.945 184.348 457.302 184.348C445.975 184.348 437.848 182.271 432.92 178.118C428.042 173.776 426.476 167.64 428.223 159.712C429.414 153.859 431.579 148.951 434.718 144.986C438.045 141.022 441.516 138.285 445.13 136.774C442.477 134.698 440.669 131.583 439.705 127.43C438.93 123.276 438.947 119.689 439.757 116.669L451.518 72.7767C452.782 68.0571 454.864 63.8095 457.764 60.0338C460.663 56.2581 464.072 53.0488 467.99 50.4059C472.146 47.5741 476.598 45.4031 481.345 43.8928C486.28 42.3825 491.297 41.6274 496.394 41.6274L521.88 41.6273C526.599 41.6274 530.884 42.1937 534.734 43.3264C538.583 44.4607 541.581 47.0093 543.729 50.9721C547.761 47.1965 552.314 44.648 557.388 43.3265C562.461 42.0049 568.276 41.4385 574.833 41.6273C585.732 41.8161 593.563 44.6479 598.326 50.1226C603.278 55.5974 604.464 63.1487 601.884 72.7766L589.895 117.518ZM466.939 148.384C465.24 148.384 463.603 148.856 462.029 149.8C460.694 150.555 459.476 152.632 458.377 156.03C457.517 159.239 457.716 161.316 458.973 162.26C460.42 163.202 461.709 163.674 462.841 163.676C466.617 163.676 469.651 162.921 471.944 161.411C474.425 159.9 476.793 158.107 479.049 156.03C479.629 155.275 480.278 154.614 480.996 154.048C481.765 153.293 482.533 152.538 483.302 151.783L487.044 148.385L466.939 148.384ZM565.613 62.299C562.026 62.299 559.199 63.3373 557.133 65.414C555.255 67.4906 553.647 70.3223 552.308 73.9092L537.891 127.713L548.086 127.713C550.54 127.713 552.989 126.674 555.433 124.598C558.066 122.521 559.889 119.595 560.9 115.819L571.903 74.7587C572.914 70.9831 572.874 67.9625 571.782 65.6971C570.879 63.4317 568.822 62.2988 565.613 62.299ZM508.816 114.687C508.462 116.008 507.648 117.99 506.373 120.633C505.099 123.276 503.428 125.636 501.362 127.712L508.441 127.713L522.858 73.9093C523.441 70.3224 522.973 67.4906 521.453 65.414C520.121 63.3374 518.417 62.2991 516.341 62.2992L493.403 62.2992C491.327 62.2992 488.972 63.3375 486.339 65.4141C483.706 67.4907 481.77 70.1337 480.533 73.3431L479.243 78.1571C481.006 77.2131 482.977 76.5523 485.155 76.1748C487.332 75.7972 488.988 75.6084 490.12 75.6084C496.023 75.4196 500.66 76.0804 504.031 77.5906C507.453 78.9121 509.822 80.9888 511.14 83.8205C512.647 86.6523 513.247 90.0503 512.939 94.0148C512.872 97.7904 512.205 102.038 510.941 106.758L508.816 114.687ZM481.243 108.74C482.255 104.964 482.686 101.944 482.538 99.6782C482.579 97.4129 481.561 96.2802 479.484 96.2801C477.408 96.2801 475.638 97.6016 474.174 100.245C472.95 102.699 471.908 105.53 471.048 108.74L469.379 114.97C468.367 118.745 467.936 121.766 468.084 124.031C468.232 126.297 469.25 127.429 471.138 127.429C473.214 127.429 474.839 126.297 476.013 124.031C477.375 121.766 478.562 118.745 479.574 114.97L481.243 108.74Z" fill="white"/>
<path d="M760.228 3.11646C756.567 1.98427 752.188 1.41572 747.091 1.41579L744.259 1.41614C734.631 1.41612 726.284 3.68261 719.218 8.21349C712.151 12.7443 707.076 20.7661 703.99 32.2818L732.306 32.2809C733.041 28.1277 734.059 25.3933 735.357 24.0718C736.894 22.5615 738.512 21.8047 740.211 21.8045C741.721 21.8043 742.77 22.4661 743.359 23.7905C744 24.9232 743.644 27.6597 742.292 32.0017C741.432 35.2112 740.158 37.8556 738.469 39.9321C736.83 41.82 734.973 42.7626 732.897 42.7626L705.711 42.7634C703.823 42.7633 701.628 42.8584 699.123 43.0472C696.618 43.236 694.061 43.6123 691.455 44.1787C688.849 44.745 686.194 45.4999 683.487 46.4438C680.969 47.3878 678.632 48.7107 676.477 50.4097C674.934 47.0116 672.049 44.7458 667.821 43.6132C663.645 42.2915 659.386 41.631 655.044 41.6308C649.947 41.6308 644.835 42.3867 639.711 43.897C634.775 45.4073 630.161 47.483 625.866 50.1259C621.571 52.7689 617.785 55.9769 614.508 59.7526C611.42 63.5282 609.243 67.7771 607.978 72.4967L585.898 154.901C584.633 159.621 584.627 163.867 585.88 167.643C587.323 171.419 589.58 174.628 592.647 177.271C595.903 179.914 599.878 181.992 604.57 183.502C609.502 184.823 614.8 185.484 620.463 185.484L625.927 165.095C622.151 165.095 619.22 164.056 617.133 161.98C615.047 159.903 614.509 156.976 615.521 153.201L636.614 74.4796C637.626 70.7039 639.354 67.7771 641.798 65.7006C644.482 63.4351 647.05 62.3035 649.505 62.3036C651.581 62.3038 653.378 63.3406 654.899 65.4168C656.47 67.3046 656.87 70.0423 656.098 73.6291L626.43 184.349L655.314 184.351L684.982 73.6271C686.803 66.8309 690.075 63.4307 694.794 63.4307L704.703 63.4317C701.881 65.5083 699.362 67.8671 697.143 70.5101C695.164 72.9642 693.643 76.1747 692.581 80.1391L672.55 154.896C671.437 159.049 671.251 162.92 671.989 166.507C672.966 169.905 674.61 172.925 676.923 175.568C679.235 178.211 682.145 180.384 685.654 182.083C689.163 183.782 693.013 184.913 697.203 185.482L703.717 185.483C708.211 184.917 712.668 183.784 717.087 182.085C721.696 180.386 725.865 178.216 729.593 175.573C733.322 172.93 736.489 169.91 739.099 166.512C741.948 162.925 743.928 159.055 745.041 154.901L766.742 73.9137C767.855 69.7605 767.226 65.4176 764.853 60.8867C762.531 56.1671 759.244 52.5812 754.993 50.127C758.128 48.9943 761.36 46.4439 764.688 42.4794C768.204 38.515 770.569 34.2674 771.783 29.7365C774.413 19.9198 773.504 12.7464 769.055 8.21564C766.83 5.95013 763.889 4.24911 760.228 3.11646ZM737.896 72.1726C738.053 72.2228 738.201 72.3393 738.361 72.4952C738.904 73.0385 738.309 75.0321 733.11 90.1653C729.885 99.5466 727.251 107.411 727.256 107.641C727.261 107.895 729.6 107.949 733.19 107.783C739.279 107.5 740.902 107.822 740.406 109.21C740.193 109.804 712.037 149.226 709.787 152.078C708.507 153.7 708.184 153.821 707.458 152.944C707.046 152.438 707.885 149.448 712.074 136.541C714.893 127.856 717.285 120.22 717.391 119.572L717.582 118.392L710.237 118.616C704.075 118.801 702.869 118.738 702.773 118.203C702.665 117.556 703.805 115.987 721.123 93.1117C726.47 86.0477 732.128 78.5579 733.697 76.4701C736.383 72.8956 737.219 71.9467 737.896 72.1726Z" fill="white"/>
<path d="M911.107 41.6272C924.699 41.6272 934.606 44.459 940.829 50.1226C947.24 55.7861 949.207 63.243 946.728 72.4934L924.648 154.897C923.434 159.428 921.163 163.676 917.835 167.64C914.747 171.416 911.056 174.625 906.76 177.268C902.465 179.911 897.756 181.988 892.631 183.498C887.696 185.008 882.68 185.764 877.582 185.764C872.674 185.764 868.062 185.008 863.747 183.498C859.621 181.988 856.119 179.911 853.24 177.268C850.412 174.436 848.397 171.038 847.194 167.074C846.179 163.109 846.33 158.673 847.645 153.765L868.89 74.4754C869.902 70.6997 869.742 67.7735 868.411 65.6969C867.13 63.4315 865.262 62.2987 862.808 62.2987C860.543 62.2987 858.188 63.337 855.744 65.4136C853.35 67.3014 851.484 70.0388 850.145 73.6257L820.477 184.347L791.31 184.347L820.978 73.6257C821.562 70.0388 821.068 67.3014 819.497 65.4136C818.166 63.337 816.462 62.2987 814.385 62.2987C811.931 62.2987 809.362 63.4315 806.678 65.6968C804.234 67.7735 802.506 70.6997 801.495 74.4753L780.401 153.198C778.226 161.316 781.291 165.375 789.598 165.375L784.135 185.763C769.976 185.763 760.232 183.026 754.903 177.551C749.762 172.076 748.482 164.525 751.061 154.897L773.142 72.4927C774.406 67.7732 776.583 63.5256 779.671 59.75C782.948 55.9743 786.734 52.7649 791.029 50.1219C795.324 47.479 799.94 45.4024 804.875 43.8922C810 42.3818 815.016 41.6266 819.924 41.6267C824.266 41.6266 828.431 42.2873 832.419 43.6088C836.596 44.9305 839.576 47.1959 841.359 50.4051C845.05 47.1957 849.433 44.9303 854.507 43.6089C859.58 42.2874 864.194 41.6267 868.347 41.6267C873.067 41.6267 877.584 42.3818 881.899 43.892C886.214 45.4023 889.811 47.4789 892.689 50.122C895.757 52.7649 897.798 56.0686 898.812 60.0331C900.066 63.8087 899.991 67.9619 898.588 72.4928L877.343 151.782C876.331 155.558 876.132 158.767 876.745 161.41C877.359 164.053 879.459 165.375 883.045 165.376C886.255 165.376 888.943 164.149 891.111 161.694C893.518 159.051 895.228 155.842 896.24 152.067L917.03 74.4764C918.041 70.7007 917.41 67.7745 915.134 65.6978C912.91 63.4325 909.721 62.3 905.567 62.3001L911.107 41.6272Z" fill="white"/>
<path d="M991.351 2.26593L988.165 14.1593C986.951 18.6902 984.825 22.749 981.787 26.3359C978.8 29.734 975.184 32.66 970.939 35.1142C966.934 37.3796 962.515 39.0787 957.68 40.2114C952.846 41.3441 947.88 41.9105 942.783 41.9105C937.875 41.9105 933.307 41.3441 929.079 40.2114C924.852 39.0784 921.343 37.3793 918.552 35.1144C915.623 32.6601 913.575 29.7339 912.409 26.3359C911.293 22.749 911.368 18.5957 912.633 13.8761L915.743 2.26599L944.627 2.26582L941.972 12.177C940.96 15.9527 941.17 18.69 942.603 20.3891C943.897 21.8993 945.677 22.6545 947.943 22.6544C950.397 22.6544 952.676 21.8993 954.78 20.389C956.883 18.8788 958.441 16.2358 959.453 12.4601L962.184 2.26578L991.351 2.26593Z" fill="white"/>
<path d="M894.859 207.193L894.577 208.246L885.957 240.413L893.935 240.414L902.836 207.193L894.859 207.193ZM896.397 209.309L900.154 209.309L892.386 238.298L888.63 238.298L896.397 209.309Z" fill="white"/>
<path d="M895.63 208.249L901.494 208.249L893.16 239.353L887.295 239.353L895.63 208.249Z" fill="white"/>
<path d="M907.584 207.193L907.302 208.246L898.683 240.413L920.52 240.413L922.578 232.735L908.718 232.735L910.084 227.637L922.551 227.637L924.605 219.969L912.139 219.969L913.505 214.871L927.364 214.871L929.422 207.193L907.584 207.193ZM909.133 209.309L926.739 209.309L925.816 212.755L911.956 212.755L909.459 222.075L921.926 222.075L921.002 225.521L908.535 225.521L906.035 234.851L919.895 234.851L918.972 238.298L901.366 238.298L909.133 209.309Z" fill="white"/>
<path d="M908.359 208.249L928.082 208.249L926.592 213.81L912.734 213.81L910.802 221.021L923.27 221.021L921.78 226.582L909.312 226.582L907.38 233.793L921.238 233.793L919.748 239.353L900.025 239.353L908.359 208.249Z" fill="white"/>
<path d="M933.168 207.193L932.886 208.246L924.267 240.414L946.104 240.414L948.162 232.735L934.302 232.735L935.668 227.637L948.145 227.637L950.2 219.969L937.722 219.969L939.088 214.871L952.948 214.871L955.006 207.193L933.168 207.193ZM934.717 209.309L952.334 209.309L951.41 212.756L937.55 212.756L935.053 222.075L947.52 222.075L946.596 225.522L934.129 225.522L931.63 234.851L945.49 234.851L944.566 238.298L926.949 238.298L934.717 209.309Z" fill="white"/>
<path d="M933.945 208.249L953.668 208.249L952.178 213.81L938.32 213.809L936.388 221.021L948.855 221.021L947.365 226.581L934.898 226.581L932.965 233.793L946.823 233.793L945.333 239.353L925.611 239.353L933.945 208.249Z" fill="white"/>
<path d="M958.762 207.193L958.48 208.246L949.861 240.414L971.698 240.414L973.755 232.735L959.896 232.735L961.262 227.637L973.728 227.637L975.783 219.969L963.316 219.969L964.682 214.871L978.542 214.871L980.6 207.193L958.762 207.193ZM960.311 209.309L977.917 209.309L976.993 212.756L963.133 212.756L960.636 222.075L973.103 222.075L972.179 225.522L959.713 225.522L957.213 234.851L971.073 234.851L970.149 238.298L952.543 238.298L960.311 209.309Z" fill="white"/>
<path d="M959.533 208.249L979.256 208.249L977.766 213.81L963.908 213.81L961.976 221.021L974.444 221.021L972.954 226.582L960.486 226.581L958.553 233.793L972.411 233.793L970.922 239.353L951.199 239.353L959.533 208.249Z" fill="white"/>
<path d="M1003.31 206.502C1001.24 206.502 999.214 206.924 997.293 207.781C995.383 208.609 993.708 209.788 992.359 211.29C991.015 212.786 990.08 214.481 989.596 216.285C988.953 218.687 989.213 220.82 990.378 222.456L990.376 222.466C991.497 223.997 993.049 225.139 994.982 225.882L996.695 226.573C998.68 227.392 999.955 228.187 1000.47 228.771L1000.49 228.782L1000.5 228.789C1001.04 229.339 1001.16 229.905 1000.92 230.791C1000.69 231.664 1000.28 232.164 999.462 232.659L999.46 232.668C998.594 233.166 997.656 233.421 996.533 233.421C995.192 233.421 994.308 233.038 993.673 232.235C993.014 231.402 992.67 230.287 992.677 228.788L992.677 227.632L984.36 230.594L984.389 231.523C984.482 234.511 985.434 236.915 987.263 238.592C989.079 240.257 991.514 241.1 994.435 241.1C996.313 241.1 998.237 240.724 1000.18 239.975C1002.2 239.213 1004.03 238.044 1005.59 236.507L1005.6 236.498C1007.21 234.886 1008.33 232.917 1008.92 230.709C1009.64 228.045 1009.44 225.744 1008.25 224.031C1007.14 222.33 1005.26 221.025 1002.71 220.058L1000.93 219.408C999.357 218.823 998.33 218.226 997.857 217.736L997.849 217.729C997.397 217.225 997.321 216.775 997.488 216.15C997.664 215.493 997.947 215.135 998.647 214.716L998.649 214.706C999.406 214.247 1000.28 213.994 1001.39 213.994C1002.45 213.994 1003.11 214.261 1003.55 214.748L1003.56 214.755L1003.58 214.766C1004.1 215.285 1004.36 215.897 1004.41 216.664L1004.48 217.738L1012.42 214.745L1012.35 213.806C1012.2 211.841 1011.4 210.137 1010.03 208.728C1008.58 207.21 1006.29 206.499 1003.32 206.499L1003.31 206.502ZM1002.75 208.607C1005.39 208.607 1007.17 209.229 1008.25 210.372L1008.26 210.371C1009.2 211.33 1009.52 212.484 1009.78 213.674L1006.17 215.046C1005.97 214.363 1005.83 213.639 1005.33 213.137C1004.56 212.296 1003.38 211.888 1001.95 211.889C1000.51 211.889 999.123 212.24 997.877 212.993C996.644 213.732 995.705 214.896 995.369 216.151C995.041 217.375 995.314 218.527 996.06 219.35L996.057 219.359L996.067 219.359C996.818 220.142 998.028 220.783 999.717 221.413L1001.49 222.063C1003.83 222.949 1005.42 224.1 1006.32 225.468L1006.32 225.478L1006.32 225.485C1007.22 226.783 1007.41 228.452 1006.8 230.707C1006.31 232.553 1005.45 234.022 1004.22 235.247C1002.96 236.485 1001.53 237.397 999.878 238.024C998.21 238.665 996.594 238.983 994.997 238.983C992.474 238.983 990.506 238.293 988.974 236.888C987.663 235.686 987.137 233.85 986.897 231.739L990.787 230.356C990.937 231.634 991.111 232.898 991.801 233.772C992.723 234.938 994.177 235.536 995.962 235.536C997.438 235.537 998.886 235.169 1000.21 234.401L1000.22 234.39L1000.23 234.379C1001.62 233.543 1002.64 232.227 1003.02 230.787C1003.4 229.361 1003.14 228.051 1002.27 227.154C1001.45 226.235 1000.03 225.443 997.955 224.585L996.224 223.883L996.215 223.883C994.532 223.237 993.233 222.272 992.278 220.973L992.271 220.966C991.38 219.708 991.191 218.217 991.71 216.28C992.095 214.841 992.791 213.579 993.841 212.41C994.885 211.248 996.147 210.354 997.711 209.676L997.723 209.664C999.285 208.964 1000.95 208.601 1002.74 208.601L1002.75 208.607Z" fill="white"/>
<path d="M994.715 240.048C991.993 240.048 989.795 239.281 988.121 237.746C986.447 236.211 985.566 234.039 985.479 231.23L991.578 229.058C991.57 230.709 991.956 232.026 992.735 233.011C993.513 233.996 994.685 234.488 996.248 234.488C997.552 234.488 998.752 234.17 999.849 233.533C1000.95 232.867 1001.66 231.954 1001.97 230.796C1002.28 229.637 1002.09 228.696 1001.38 227.972C1000.72 227.219 999.365 226.423 997.332 225.583L995.606 224.888C993.794 224.193 992.369 223.136 991.33 221.717C990.299 220.269 990.074 218.458 990.656 216.286C991.091 214.665 991.906 213.188 993.103 211.855C994.3 210.523 995.767 209.481 997.504 208.728C999.248 207.946 1001.09 207.555 1003.03 207.555C1005.84 207.555 1007.88 208.221 1009.14 209.553C1010.41 210.856 1011.12 212.391 1011.25 214.158L1005.5 216.33C1005.44 215.374 1005.09 214.577 1004.45 213.94C1003.84 213.274 1002.92 212.941 1001.67 212.941C1000.4 212.941 999.262 213.245 998.259 213.853C997.293 214.432 996.682 215.2 996.425 216.156C996.177 217.082 996.355 217.879 996.958 218.545C997.57 219.182 998.691 219.805 1000.32 220.413L1002.1 221.065C1004.55 221.991 1006.28 223.222 1007.28 224.757C1008.33 226.263 1008.52 228.247 1007.86 230.709C1007.32 232.736 1006.33 234.459 1004.91 235.878C1003.5 237.269 1001.87 238.311 1000.03 239.006C998.226 239.701 996.453 240.048 994.715 240.048Z" fill="white"/>
<path d="M1034.46 206.502C1031.28 206.502 1028.12 207.272 1025.06 208.813C1022.01 210.32 1019.33 212.418 1017.09 215.057L1017.09 215.066C1014.87 217.689 1013.33 220.619 1012.48 223.797C1011.62 226.975 1011.59 229.93 1012.39 232.579L1012.4 232.586C1013.24 235.198 1014.79 237.296 1017.01 238.83L1017.02 238.83C1019.27 240.339 1022.01 241.1 1025.19 241.1C1027.87 241.1 1030.48 240.596 1032.98 239.572L1032.99 239.572L1033 239.563C1035.5 238.512 1037.86 236.992 1040.04 235.032L1040.9 234.268L1036.57 228.85L1035.62 229.738C1032.9 232.263 1030.23 233.422 1027.28 233.422C1025.5 233.422 1024.04 233.036 1022.82 232.256L1022.81 232.256C1021.6 231.449 1020.78 230.348 1020.34 228.882C1019.9 227.432 1019.93 225.754 1020.45 223.794C1020.98 221.834 1021.84 220.167 1023.06 218.716C1024.29 217.25 1025.7 216.161 1027.33 215.383L1027.34 215.372C1028.99 214.564 1030.67 214.164 1032.44 214.164C1035.09 214.164 1036.96 215.163 1038.27 217.322L1038.78 218.158L1045.92 212.678L1045.43 211.925C1043.14 208.338 1039.4 206.496 1034.46 206.496L1034.46 206.502ZM1033.89 208.607C1037.95 208.607 1040.78 210.077 1042.81 212.735L1039.3 215.428C1037.75 213.495 1035.8 212.054 1033.01 212.054C1030.91 212.054 1028.82 212.552 1026.8 213.54C1024.79 214.5 1023.01 215.895 1021.52 217.668C1020.01 219.461 1018.95 221.53 1018.34 223.798C1017.73 226.067 1017.69 228.135 1018.23 229.928C1018.77 231.704 1019.8 233.119 1021.29 234.108L1021.3 234.108C1022.8 235.063 1024.62 235.542 1026.72 235.542C1029.83 235.542 1032.85 233.891 1035.69 231.61L1037.82 234.304C1036.16 235.662 1034.46 236.884 1032.61 237.658C1030.44 238.543 1028.17 238.989 1025.75 238.989C1022.91 238.989 1020.53 238.326 1018.56 236.997C1016.59 235.638 1015.25 233.828 1014.51 231.527C1013.81 229.196 1013.83 226.643 1014.59 223.797C1015.35 220.951 1016.7 218.419 1018.64 216.119C1020.63 213.784 1022.93 211.969 1025.62 210.639L1025.63 210.639C1028.32 209.284 1031.05 208.607 1033.89 208.607Z" fill="white"/>
<path d="M1025.47 240.048C1022.46 240.048 1019.9 239.339 1017.79 237.92C1015.68 236.472 1014.24 234.517 1013.45 232.055C1012.7 229.564 1012.73 226.813 1013.53 223.801C1014.34 220.789 1015.78 218.052 1017.86 215.591C1019.98 213.1 1022.47 211.145 1025.34 209.726C1028.22 208.278 1031.17 207.554 1034.18 207.554C1038.87 207.554 1042.3 209.248 1044.46 212.637L1039.26 216.633C1037.83 214.287 1035.66 213.114 1032.73 213.114C1030.79 213.114 1028.9 213.563 1027.07 214.461C1025.24 215.33 1023.65 216.575 1022.29 218.197C1020.93 219.819 1019.96 221.687 1019.4 223.801C1018.83 225.915 1018.79 227.783 1019.29 229.405C1019.78 231.027 1020.7 232.287 1022.05 233.185C1023.41 234.053 1025.06 234.488 1027 234.488C1030.25 234.488 1033.33 233.127 1036.27 230.404L1039.42 234.357C1037.36 236.211 1035.15 237.63 1032.81 238.615C1030.46 239.57 1028.02 240.048 1025.47 240.048Z" fill="white"/>
<path d="M1048.56 207.193L1046.5 214.871L1055.19 214.871L1048.34 240.413L1056.32 240.413L1063.17 214.871L1071.86 214.871L1073.91 207.193L1048.56 207.193ZM1050.09 209.309L1071.23 209.309L1070.31 212.756L1061.62 212.755L1054.77 238.298L1051.02 238.298L1057.86 212.755L1056.81 212.755L1049.17 212.755L1050.09 209.309Z" fill="white"/>
<path d="M1056.53 213.81L1047.84 213.81L1049.33 208.249L1072.57 208.249L1071.08 213.81L1062.39 213.81L1055.55 239.353L1049.68 239.353L1056.53 213.81Z" fill="white"/>
<path d="M1095.33 206.502C1093.24 206.502 1091.21 206.917 1089.29 207.781C1087.38 208.609 1085.72 209.79 1084.37 211.29C1083.03 212.786 1082.09 214.481 1081.61 216.285C1080.97 218.687 1081.22 220.82 1082.38 222.456L1082.39 222.456L1082.39 222.465C1083.51 223.999 1085.07 225.138 1087.01 225.881L1086.98 225.88L1088.71 226.571C1090.69 227.39 1091.97 228.186 1092.48 228.769L1092.49 228.776L1092.51 228.787C1093.05 229.337 1093.16 229.903 1092.92 230.789C1092.69 231.662 1092.29 232.162 1091.47 232.657L1091.47 232.666C1090.61 233.164 1089.67 233.419 1088.55 233.419C1087.2 233.419 1086.31 233.037 1085.67 232.233C1085.02 231.4 1084.67 230.285 1084.68 228.786L1084.69 227.63L1076.36 230.592L1076.39 231.521C1076.48 234.509 1077.45 236.913 1079.28 238.59C1081.09 240.255 1083.52 241.098 1086.44 241.098C1088.31 241.098 1090.24 240.719 1092.19 239.973C1094.2 239.211 1096.03 238.042 1097.59 236.505L1097.61 236.494C1099.22 234.881 1100.33 232.913 1100.92 230.704C1101.64 228.04 1101.44 225.74 1100.26 224.027C1099.14 222.325 1097.28 221.021 1094.73 220.054L1094.72 220.054L1092.94 219.404L1092.93 219.405C1091.37 218.822 1090.34 218.221 1089.87 217.733C1089.41 217.223 1089.32 216.773 1089.49 216.143C1089.67 215.487 1089.95 215.128 1090.65 214.709L1090.65 214.7L1090.66 214.699C1091.42 214.24 1092.3 213.987 1093.4 213.987C1094.46 213.987 1095.11 214.254 1095.55 214.741L1095.57 214.752L1095.58 214.759C1096.1 215.279 1096.37 215.891 1096.42 216.658L1096.5 217.731L1104.43 214.738L1104.36 213.799C1104.21 211.835 1103.41 210.131 1102.04 208.722C1100.59 207.204 1098.3 206.492 1095.33 206.493L1095.33 206.502ZM1094.76 208.607C1097.41 208.607 1099.18 209.229 1100.27 210.372C1101.2 211.33 1101.54 212.484 1101.8 213.674L1098.19 215.047C1097.98 214.364 1097.84 213.639 1097.35 213.137C1096.58 212.296 1095.4 211.889 1093.97 211.889C1092.52 211.889 1091.13 212.236 1089.88 212.993C1088.65 213.732 1087.71 214.896 1087.38 216.151C1087.05 217.375 1087.32 218.527 1088.07 219.35L1088.07 219.357L1088.08 219.357C1088.83 220.14 1090.03 220.782 1091.72 221.411L1093.5 222.061C1095.84 222.948 1097.43 224.098 1098.32 225.467L1098.33 225.474L1098.33 225.483C1099.23 226.781 1099.41 228.45 1098.81 230.705C1098.31 232.547 1097.47 234.011 1096.24 235.235C1094.98 236.479 1093.55 237.394 1091.89 238.022L1091.88 238.022C1090.22 238.663 1088.6 238.982 1087 238.982C1084.48 238.982 1082.51 238.292 1080.98 236.887C1079.67 235.685 1079.15 233.848 1078.91 231.737L1082.8 230.364C1082.95 231.637 1083.12 232.9 1083.81 233.77C1084.73 234.936 1086.19 235.535 1087.98 235.535C1089.45 235.535 1090.9 235.168 1092.23 234.4L1092.24 234.388L1092.25 234.377C1093.64 233.542 1094.65 232.226 1095.04 230.786C1095.42 229.358 1095.14 228.05 1094.27 227.153L1094.27 227.144C1093.45 226.229 1092.04 225.439 1089.97 224.584L1088.23 223.882C1086.55 223.237 1085.25 222.272 1084.29 220.972L1084.29 220.965C1083.4 219.708 1083.21 218.217 1083.73 216.28C1084.11 214.84 1084.81 213.578 1085.86 212.41C1086.9 211.247 1088.16 210.353 1089.73 209.675L1089.73 209.666L1089.74 209.665C1091.3 208.965 1092.96 208.602 1094.76 208.602L1094.76 208.607Z" fill="white"/>
<path d="M1086.72 240.048C1084 240.048 1081.8 239.281 1080.13 237.746C1078.46 236.211 1077.58 234.039 1077.49 231.229L1083.59 229.057C1083.58 230.708 1083.97 232.026 1084.74 233.011C1085.52 233.995 1086.69 234.488 1088.26 234.488C1089.56 234.488 1090.76 234.169 1091.86 233.532C1092.96 232.866 1093.67 231.954 1093.98 230.795C1094.29 229.637 1094.1 228.696 1093.39 227.972C1092.73 227.219 1091.38 226.422 1089.34 225.582L1087.62 224.887C1085.8 224.192 1084.38 223.135 1083.34 221.716C1082.31 220.268 1082.08 218.458 1082.67 216.286C1083.1 214.664 1083.92 213.187 1085.11 211.855C1086.31 210.523 1087.78 209.48 1089.51 208.727C1091.26 207.945 1093.1 207.554 1095.04 207.554C1097.85 207.554 1099.89 208.22 1101.15 209.552C1102.42 210.855 1103.13 212.39 1103.26 214.157L1097.51 216.329C1097.45 215.373 1097.1 214.577 1096.46 213.94C1095.85 213.274 1094.93 212.941 1093.68 212.94C1092.41 212.94 1091.27 213.245 1090.27 213.853C1089.3 214.432 1088.69 215.199 1088.44 216.155C1088.19 217.082 1088.36 217.878 1088.97 218.545C1089.58 219.182 1090.7 219.804 1092.33 220.413L1094.11 221.064C1096.56 221.991 1098.29 223.222 1099.29 224.757C1100.34 226.263 1100.53 228.247 1099.87 230.708C1099.33 232.736 1098.34 234.459 1096.92 235.878C1095.51 237.268 1093.88 238.311 1092.04 239.006C1090.24 239.701 1088.46 240.048 1086.72 240.048Z" fill="white"/>
<path d="M1110.46 207.193L1110.17 208.246L1101.55 240.413L1115.21 240.414C1117.22 240.413 1119.19 240.04 1121.07 239.278L1121.09 239.267C1123.01 238.474 1124.71 237.336 1126.11 235.872C1127.57 234.366 1128.57 232.611 1129.08 230.712C1129.6 228.758 1129.52 226.987 1128.81 225.552C1128.28 224.462 1127.21 223.825 1126.15 223.188C1127.22 222.569 1128.32 221.963 1129.18 221.042C1130.45 219.7 1131.32 218.107 1131.78 216.367C1132.23 214.689 1132.17 213.108 1131.6 211.702C1131.03 210.299 1130.01 209.183 1128.61 208.389L1128.6 208.389C1127.21 207.593 1125.56 207.192 1123.68 207.192L1110.46 207.193ZM1112 209.309L1123.11 209.309C1124.7 209.308 1126.03 209.63 1127.15 210.279L1127.16 210.279L1127.16 210.288C1128.32 210.941 1129.09 211.792 1129.53 212.878C1129.97 213.963 1130.02 215.09 1129.68 216.367C1129.31 217.754 1128.66 218.889 1127.74 219.865C1126.83 220.844 1125.79 221.583 1124.56 222.115L1123.89 222.404L1123.42 224.158L1124.05 224.406C1125.36 224.925 1126.25 225.714 1126.79 226.821L1126.78 226.83C1127.31 227.884 1127.38 229.134 1126.96 230.71C1126.55 232.228 1125.82 233.505 1124.71 234.663L1124.69 234.674C1123.6 235.817 1122.31 236.692 1120.72 237.347C1119.16 237.972 1117.52 238.296 1115.78 238.296L1104.24 238.296L1112 209.309ZM1114.91 212.446L1112.35 221.992L1119.28 221.992C1120.77 221.992 1122.21 221.573 1123.43 220.671L1123.44 220.66L1123.45 220.648C1124.64 219.744 1125.48 218.51 1125.84 217.191C1126.18 215.897 1125.97 214.7 1125.26 213.827C1124.58 212.909 1123.42 212.444 1122.01 212.444L1114.91 212.446ZM1116.46 214.562L1121.44 214.562C1122.45 214.561 1123.03 214.82 1123.4 215.335L1123.41 215.352L1123.42 215.359C1123.84 215.875 1123.93 216.397 1123.72 217.185C1123.5 218 1123.11 218.567 1122.41 219.105C1121.75 219.594 1120.96 219.869 1119.84 219.869L1115.03 219.869L1116.46 214.562ZM1111.57 224.913L1108.85 235.068L1116.42 235.068C1118.02 235.067 1119.55 234.635 1120.82 233.695C1122.08 232.754 1122.97 231.439 1123.35 230.011C1123.73 228.583 1123.55 227.268 1122.79 226.327C1122 225.351 1120.65 224.913 1118.97 224.913L1111.57 224.913ZM1113.12 227.028L1118.4 227.028C1119.73 227.029 1120.5 227.344 1120.93 227.874C1121.39 228.439 1121.5 229.064 1121.25 230.011C1120.99 230.957 1120.55 231.582 1119.79 232.147C1119.1 232.651 1118.23 232.952 1116.99 232.952L1111.53 232.952L1113.12 227.028Z" fill="white"/>
<path d="M1111.23 208.249L1123.39 208.249C1125.13 208.249 1126.63 208.611 1127.88 209.335C1129.17 210.059 1130.06 211.044 1130.57 212.289C1131.07 213.534 1131.13 214.895 1130.73 216.372C1130.31 217.936 1129.56 219.298 1128.46 220.456C1127.41 221.586 1126.18 222.454 1124.77 223.062L1124.68 223.41C1126.14 223.99 1127.18 224.916 1127.8 226.19C1128.42 227.436 1128.49 228.942 1128.02 230.708C1127.56 232.417 1126.69 233.938 1125.41 235.27C1124.16 236.573 1122.66 237.587 1120.9 238.311C1119.18 239.006 1117.38 239.353 1115.49 239.353L1102.9 239.353L1111.23 208.249ZM1119.56 220.934C1120.86 220.934 1121.99 220.587 1122.93 219.892C1123.87 219.167 1124.49 218.27 1124.78 217.198C1125.06 216.155 1124.91 215.287 1124.35 214.592C1123.82 213.868 1122.94 213.506 1121.73 213.506L1115.69 213.506L1113.7 220.934L1119.56 220.934ZM1116.71 234.01C1118.13 234.01 1119.33 233.648 1120.3 232.924C1121.31 232.171 1121.98 231.201 1122.3 230.013C1122.62 228.826 1122.47 227.856 1121.86 227.103C1121.25 226.35 1120.19 225.973 1118.69 225.973L1112.35 225.973L1110.19 234.01L1116.71 234.01Z" fill="white"/>
<path d="M1022.31 38.2368C1012.09 38.2368 1003.08 40.8982 995.907 46.6288C988.738 52.3595 983.901 60.7542 981.125 71.1131L975.171 93.3331L1002.35 93.3331L1008.3 71.1131C1009 68.5094 1009.95 67.143 1010.8 66.4319C1011.65 65.7207 1012.81 65.2009 1015.08 65.2009L1015.22 65.2009C1017.47 65.2009 1018.33 65.7054 1018.79 66.4139C1019.25 67.1224 1019.47 68.5049 1018.77 71.1131L1011.45 98.4276C1010.93 100.375 1009.09 103.149 1005.32 106.586C1001.55 110.023 995.978 114.021 988.692 118.383C973.033 127.789 962.725 139.781 959.047 153.506L950.084 186.957L1014.91 186.957L1022.12 160.056L984.472 160.056L985.77 155.213C986.998 150.627 994.119 143.217 1008.66 134.511C1024.39 125.051 1034.74 112.902 1038.48 98.9577L1045.94 71.1131C1048.72 60.7528 1048.37 52.3495 1044.26 46.6199C1040.15 40.8902 1032.53 38.2368 1022.3 38.2368L1022.31 38.2368ZM1020.41 45.308C1029.45 45.308 1034.99 47.5392 1037.89 51.5886C1040.8 55.638 1041.34 61.9152 1038.87 71.1131L1031.41 98.9577C1028.3 110.586 1020.28 120.217 1006.09 128.752C990.73 137.947 981.09 146.255 978.69 155.213L975.495 167.136L1013.14 167.136L1009.73 179.877L959.062 179.877L966.128 153.506C969.175 142.134 977.128 132.636 991.265 124.143C998.927 119.555 1004.99 115.269 1009.56 111.105C1014.12 106.941 1017.33 102.785 1018.52 98.4815L1018.52 98.4724L1025.85 71.1129C1026.84 67.4227 1026.88 64.0744 1025.29 61.6337C1023.71 59.193 1020.65 58.1206 1017.12 58.1206L1016.98 58.1206C1013.43 58.1206 1009.8 59.1867 1006.89 61.6247C1003.99 64.0627 1002.22 67.4183 1001.23 71.1129L997.169 86.2527L984.149 86.2527L988.206 71.1129C990.671 61.9137 994.564 55.6369 999.628 51.5884C1004.69 47.54 1011.4 45.308 1020.41 45.308Z" fill="white"/>
<path d="M962.584 153.51C965.947 140.961 975.078 130.211 989.979 121.261C1004.93 112.31 1013.26 104.71 1014.98 98.4587L1022.31 71.1103C1024 64.812 1021.95 61.6628 1016.18 61.6628L1016.03 61.6628C1010.21 61.6628 1006.45 64.812 1004.77 71.1103L999.76 89.7925L979.657 89.7925L984.663 71.1103C989.903 51.5522 1002.14 41.7732 1021.36 41.7732C1040.64 41.7732 1047.65 51.5522 1042.41 71.1103L1034.95 98.9558C1031.53 111.742 1022.33 122.634 1007.37 131.632C992.425 140.582 984.044 148.443 982.23 155.215L979.984 163.597L1017.63 163.597L1012.32 183.416L954.57 183.416L962.584 153.51Z" fill="white"/>
<path d="M1040.57 156.794L1039.62 160.326L1032.49 186.957L1062.65 186.957L1070.73 156.794L1040.57 156.794ZM1045.75 163.866L1061.76 163.866L1057.47 179.877L1041.46 179.877L1045.75 163.866Z" fill="white"/>
<path d="M1043.16 160.33L1066.25 160.33L1060.06 183.416L1036.97 183.416L1043.16 160.33Z" fill="white"/>
<path d="M1151.75 38.2368C1141.53 38.2368 1132.51 40.8982 1125.34 46.6288C1118.17 52.3595 1113.33 60.7542 1110.55 71.1131L1087.71 156.354C1084.94 166.691 1085.3 175.067 1089.4 180.784C1093.5 186.502 1101.09 189.158 1111.31 189.158C1121.54 189.158 1130.57 186.501 1137.75 180.784C1144.93 175.068 1149.77 166.692 1152.54 156.354L1175.38 71.1131C1178.16 60.7528 1177.81 52.3495 1173.7 46.6199C1169.58 40.8902 1161.98 38.2368 1151.75 38.2368ZM1149.85 45.308C1158.89 45.308 1164.42 47.5392 1167.32 51.5886C1170.23 55.638 1170.77 61.9152 1168.3 71.1131L1145.46 156.354C1143 165.527 1139.12 171.777 1134.05 175.816C1128.97 179.854 1122.24 182.078 1113.2 182.078C1104.19 182.078 1098.67 179.853 1095.77 175.816C1092.87 171.778 1092.34 165.528 1094.79 156.354L1117.63 71.1131C1120.1 61.9138 1123.99 55.637 1129.06 51.5886C1134.12 47.5401 1140.84 45.308 1149.85 45.308ZM1146.34 58.1207C1142.81 58.1207 1139.18 59.1932 1136.29 61.6339C1133.4 64.0745 1131.64 67.4229 1130.65 71.1131L1107.81 156.354C1106.82 160.049 1106.79 163.404 1108.4 165.842C1110 168.28 1113.06 169.338 1116.61 169.338C1120.17 169.338 1123.82 168.287 1126.74 165.851C1129.66 163.416 1131.45 160.053 1132.44 156.354L1155.28 71.1131C1156.27 67.4184 1156.3 64.0629 1154.7 61.6249C1153.09 59.1869 1150.03 58.1207 1146.48 58.1207L1146.34 58.1207ZM1144.45 65.2009L1144.58 65.2009C1146.85 65.2009 1147.75 65.7207 1148.21 66.4319C1148.68 67.143 1148.9 68.5094 1148.2 71.1131L1125.36 156.354C1124.66 158.953 1123.71 160.312 1122.86 161.026C1122 161.74 1120.81 162.257 1118.5 162.257C1116.23 162.257 1115.34 161.747 1114.88 161.035C1114.41 160.324 1114.19 158.958 1114.89 156.354L1137.73 71.1131C1138.43 68.5049 1139.38 67.1224 1140.22 66.4139C1141.06 65.7054 1142.2 65.2009 1144.45 65.2009Z" fill="white"/>
<path d="M1149 156.352C1143.77 175.862 1131.52 185.618 1112.25 185.618C1093.02 185.618 1086.02 175.862 1091.25 156.352L1114.09 71.1103C1119.33 51.5522 1131.57 41.7732 1150.79 41.7732C1170.07 41.7732 1177.08 51.5522 1171.84 71.1103L1149 156.352ZM1151.74 71.1103C1153.43 64.812 1151.36 61.6628 1145.53 61.6628L1145.39 61.6628C1139.61 61.6628 1135.88 64.812 1134.19 71.1103L1111.35 156.352C1109.67 162.65 1111.74 165.799 1117.56 165.799C1123.43 165.799 1127.21 162.65 1128.9 156.352L1151.74 71.1103Z" fill="white"/>
</g>
<defs>
<clipPath id="clip0_475_237">
<rect width="1177.18" height="241.1" fill="white"/>
</clipPath>
</defs>
</svg>
